<svg xmlns="http://www.w3.org/2000/svg" width="234" height="223.777" viewBox="0 0 234 223.777">
  <g id="_3018114" data-name="3018114" transform="translate(-11 239.858)">
    <path id="Path_1" data-name="Path 1" d="M65.6-238.4c-7.1,2.2-14,9.4-16.2,17-2,7-1.4,15,1.5,20a19.126,19.126,0,0,1,2.1,4c0,.2-8.9.4-19.8.4-14.1,0-20.1.3-21,1.2-.8.8-1.2,5.5-1.2,14.4,0,15.7.4,16.4,10.2,16.4H27v63.1c0,69.7-.2,67.5,6.4,72.2l3.1,2.2,56.3.3L149-27V-37H123V-165h74l.2,23.7.3,23.8,5.3.3,5.2.3V-165h5.8c9.7,0,10.2-.7,10.2-16,0-10.4-.3-13.2-1.6-14.4-1.3-1.3-4.6-1.6-21-1.6-10.7,0-19.4-.2-19.4-.5a32.229,32.229,0,0,1,2.2-4.8c2.9-5.6,3-15.4.1-21.7-7.2-16.1-26.6-20.5-46.4-10.4-6.2,3.1-14.2,10.3-17.9,16.1l-2.7,4.2-3.1-4.7C103.8-234.8,82.2-243.5,65.6-238.4Zm25.6,13.2a36.69,36.69,0,0,1,10.9,8c4.5,5.1,8.9,13.8,8.9,17.7v2.5H91.7c-18,0-19.6-.1-23.7-2.3-6.6-3.3-9.3-7.8-8.8-14.8.7-10.5,6.6-15.2,18.3-14.7A29.186,29.186,0,0,1,91.2-225.2Zm76.8-1.6c7.7,5.3,10,13.9,5.8,21.2-4.3,7.5-6.5,8.1-30.1,8.4l-20.9.3.7-3.3c2-9.5,10.1-20,19-24.5,6.8-3.5,9-4.1,16.1-4.2C163.4-229,165.4-228.5,168-226.8Zm45,45.3v5.5H21v-4.8c0-2.7.3-5.2.7-5.5.3-.4,43.5-.7,96-.7H213ZM112-101v64H76.5c-34.2,0-35.6-.1-37.5-2-2-2-2-3.3-2-64v-62h75Z"/>
    <path id="Path_2" data-name="Path 2" d="M185.1-110.4a49.023,49.023,0,0,0-33.2,31c-1.6,4.4-2.1,8.2-2.1,15.4,0,14.6,4.9,26,15.1,35.3C196.1-.7,245-22.3,245-64,245-95.4,215.2-118.5,185.1-110.4Zm28.2,12.8c28.2,13.7,28.1,53.4-.1,67.3-5.1,2.5-6.8,2.8-15.7,2.8-9.3,0-10.5-.2-16.7-3.3-20.9-10.2-27.2-37.9-12.9-56,4.7-5.9,8.5-8.7,16-11.9,4.8-2,6.9-2.3,14.7-2C206-100.5,208.6-99.9,213.3-97.6Z"/>
    <path id="Path_3" data-name="Path 3" d="M192-88.1c0,2.9-.2,3.1-3.9,3.1-5.8,0-7.1,2.4-7.1,13.1,0,12,.7,12.8,12.5,13.1,8.9.3,9,.3,9,2.8s0,2.5-10.7,2.8l-10.8.3V-43h5.5c5.5,0,5.5,0,5.5,3.1v3l5.3-.3c4.8-.3,5.2-.5,5.5-3.1.3-2.4.7-2.7,4.1-2.7,2,0,4.2-.5,4.9-1.2,1.6-1.6,1.6-22,0-23.6-.8-.8-4.6-1.2-10.5-1.2H192v-6h21V-85h-4.9c-4.7,0-5-.2-5.3-2.8-.3-2.5-.7-2.7-5.5-3l-5.3-.3Z"/>
  </g>
</svg>
