<svg xmlns="http://www.w3.org/2000/svg" width="210.286" height="147.2" viewBox="0 0 210.286 147.2">
  <g id="email-svgrepo-com_1_" data-name="email-svgrepo-com (1)" transform="translate(0 -76.8)">
    <g id="Group_2" data-name="Group 2" transform="translate(0 76.8)">
      <g id="Group_1" data-name="Group 1" transform="translate(0 0)">
        <path id="Path_1" data-name="Path 1" d="M1.321,97.065l91.036,72.51c.649.547,6.5,5.359,12.786,5.359,6.316,0,12.218-4.633,12.852-5.148l90.973-72.724a3.5,3.5,0,0,0,1.318-2.737A17.544,17.544,0,0,0,192.762,76.8H17.524A17.544,17.544,0,0,0,0,94.324,3.505,3.505,0,0,0,1.321,97.065Zm16.2-13.255H192.762a10.532,10.532,0,0,1,10.4,8.923L113.6,164.321c-1.248,1-5.2,3.6-8.46,3.6-3.158,0-7.027-2.67-8.331-3.764L7.129,92.729A10.532,10.532,0,0,1,17.524,83.81Z" transform="translate(0 -76.8)" fill="#fff"/>
        <path id="Path_2" data-name="Path 2" d="M84.54,273.816,35.474,312.369a3.5,3.5,0,1,0,4.332,5.51l49.067-38.552a3.5,3.5,0,1,0-4.332-5.509Z" transform="translate(-20.116 -192.457)" fill="#fff"/>
        <path id="Path_3" data-name="Path 3" d="M347,273.818a3.5,3.5,0,1,0-4.332,5.51L391.74,317.88a3.5,3.5,0,0,0,4.332-5.51Z" transform="translate(-201.144 -192.459)" fill="#fff"/>
        <path id="Path_4" data-name="Path 4" d="M206.781,153.6a3.506,3.506,0,0,0-3.5,3.5v94.629a10.527,10.527,0,0,1-10.514,10.514H17.524A10.527,10.527,0,0,1,7.01,251.733V157.1a3.5,3.5,0,0,0-7.01,0v94.629a17.544,17.544,0,0,0,17.524,17.524H192.762a17.544,17.544,0,0,0,17.524-17.524V157.1A3.507,3.507,0,0,0,206.781,153.6Z" transform="translate(0 -122.057)" fill="#fff"/>
      </g>
    </g>
  </g>
</svg>
