<svg xmlns="http://www.w3.org/2000/svg" width="459" height="511.926" viewBox="0 0 459 511.926">
  <g id="event" transform="translate(-26.5 511.926)">
    <path id="Path_1" data-name="Path 1" d="M98.5-510.8c-3.5,2-4.4,4.1-4.5,10v5.6l-21.3.4-21.3.3-6.6,3.3a33.379,33.379,0,0,0-16,16.1l-2.3,4.6v284l2.5,5a37.332,37.332,0,0,0,16.8,16.3c5.4,2.5,6.7,2.7,24,3,15.8.3,18.3.6,17.8,1.9a57.268,57.268,0,0,0-1.7,8.4c-2.2,14.5,2.8,30.1,13.5,41.6l5.7,6.2-4.3,2.2C86.5-94.6,73-80.3,66.4-65.3,61.7-54.7,60-44.9,60-28c0,14.2.2,15.8,2.3,19.5A14.475,14.475,0,0,0,69-2.3L73.4,0H438.6L443-2.3a15.763,15.763,0,0,0,6.8-6.2c2.2-3.8,2.3-4.7,1.9-22.5-.3-17.1-.5-19.1-3.1-26.5-6.7-19.5-20.2-35.7-36.9-44.2l-4.8-2.4,5.7-6.2c10.7-11.5,15.7-27.1,13.5-41.6a57.264,57.264,0,0,0-1.7-8.4c-.5-1.3,2-1.6,17.8-1.9,17.3-.3,18.6-.5,24-3A37.332,37.332,0,0,0,483-181.5l2.5-5v-284l-2.4-5a38.077,38.077,0,0,0-16.9-16.3c-5.5-2.6-6.4-2.7-26.9-3l-21.3-.4v-5.6c-.1-6-1.1-8.1-4.7-10-3.5-1.9-6.3-1.4-9.4,1.7-2.5,2.6-2.9,3.7-2.9,8.5v5.6H341v-6c0-5.1-.4-6.5-2.5-8.5-3.1-3.2-7.5-3.2-11.1-.2-2.3,2-2.8,3.4-3.2,8.5l-.4,6.2H265v-4.3c0-5.5-2.8-10.9-6.2-12.1-6.3-2.2-11.8,3.4-11.8,12.1v4.3H188.2l-.4-6.2c-.4-5.1-.9-6.5-3.2-8.5-3.6-3-8-3-11.1.2-2.1,2-2.5,3.4-2.5,8.5v6H111v-5.6c0-4.8-.4-5.9-2.9-8.5C105-512.1,101.8-512.7,98.5-510.8ZM94-472c0,5.1.4,6.5,2.5,8.5a7.518,7.518,0,0,0,5.7,2.5c5.9-.1,8.8-4,8.8-11.9V-478h60v6c0,7.4,2.7,11,8.4,11,5.2,0,8.6-4.5,8.6-11.6V-478h58.7l.6,6.2c.5,5.1,1,6.7,3.2,8.5A9.506,9.506,0,0,0,256-461a9.506,9.506,0,0,0,5.5-2.3c2.2-1.8,2.7-3.4,3.2-8.5l.6-6.2H324v5.4c0,7.1,3.4,11.6,8.6,11.6,5.7,0,8.4-3.6,8.4-11v-6h60v5.1c0,7.9,2.9,11.8,8.8,11.9a7.518,7.518,0,0,0,5.7-2.5c2.1-2,2.5-3.4,2.5-8.5v-6h18.8c17.8,0,19.1.1,23.3,2.3,7.1,3.8,8.9,8,8.9,20.9V-444H43v-10.8c0-12.9,1.8-17.1,8.9-20.9,4.2-2.2,5.5-2.3,23.3-2.3H94ZM469-309.4v117.6l-2.2,4a19.906,19.906,0,0,1-5.8,6.1c-3.3,2.1-4.9,2.2-25.3,2.5l-21.8.3-4.8-4.3a50.565,50.565,0,0,0-58.6-6.3,46.739,46.739,0,0,0-9.4,6.9l-3.5,3.6H307v-3c0-10.9-5.9-23.9-15-33-10.4-10.5-21.3-15-36-15s-25.6,4.5-36,15c-9.1,9.1-15,22.1-15,33v3H174.4l-3.5-3.6a46.739,46.739,0,0,0-9.4-6.9,50.565,50.565,0,0,0-58.6,6.3l-4.8,4.3-21.8-.3c-20.4-.3-22-.4-25.3-2.5a19.905,19.905,0,0,1-5.8-6.1l-2.2-4V-427H469ZM270.1-210.2a35.057,35.057,0,0,1,16,15.4c3.2,5.8,3.4,6.9,3.4,15.3,0,7.6-.4,9.9-2.6,14.5a36.511,36.511,0,0,1-16.7,16.7c-4.9,2.4-6.9,2.8-14.2,2.8s-9.3-.4-14.2-2.8c-19.5-9.6-25.8-33.6-13.3-50.9,3.9-5.3,10.9-10.5,16.9-12.4C251.6-213.7,264.5-212.9,270.1-210.2Zm-119.9,34c16.7,7.4,25,28.2,17.6,44.4-3.5,7.5-9.7,14.1-16.7,17.5-4.9,2.4-6.7,2.8-14.6,2.8-7.9-.1-9.7-.4-14.8-3-21.4-10.7-25.7-39.2-8.4-55.2,5-4.6,7.4-6.1,13.2-8S144.4-178.8,150.2-176.2Zm239-.1a46.973,46.973,0,0,1,9.3,6.4,33.929,33.929,0,0,1-8.2,55.4c-5.1,2.6-6.9,2.9-14.8,3-7.9,0-9.7-.4-14.6-2.8-16.4-8-23.9-28.1-16.5-44.2a34.8,34.8,0,0,1,20.9-19.1C371.2-179.6,383.3-178.9,389.2-176.3ZM210.9-155.5a58.543,58.543,0,0,0,8.7,11.9c4.8,4.8,5.2,5.5,3.5,6.1-4.3,1.3-16.9,10.5-22.2,16.2a80.787,80.787,0,0,0-15,21.9L184-94.8l-3.3-2.1c-1.7-1.2-5.4-3.3-8-4.7l-4.9-2.5,5.6-5.9c10.7-11.2,16.2-28.1,13.7-42.4a75.944,75.944,0,0,0-1.7-8.1c-.5-1.3,1-1.5,10.7-1.5h11.4Zm115.7-4.8a63.277,63.277,0,0,0-1.8,8.7c-2.2,14.3,3.2,30.5,13.8,41.6l5.6,5.9-4.9,2.5c-2.6,1.4-6.3,3.5-8,4.7L328-94.8l-1.9-4.6c-6.3-14.7-21.4-30.6-35.3-37.2l-3.7-1.7,5.4-5.5a56.967,56.967,0,0,0,8.7-11.8l3.3-6.4h11.4C326.1-162,327.2-161.8,326.6-160.3ZM270.4-126a75.726,75.726,0,0,1,13.9,5.2c8.5,4.5,20.3,16.4,24.5,24.8,6.1,12.2,6.5,14.5,6.9,48.3l.5,30.7H195.8l.5-30.7c.4-33.8.8-36.1,6.9-48.3,4.2-8.4,16-20.3,24.5-24.8A60.007,60.007,0,0,1,270.4-126ZM150.2-92.1a64.532,64.532,0,0,1,23.6,11.3l5.2,4V-17H76.8l.4-14.8c.4-12.7.8-15.7,3.1-22.1a59.014,59.014,0,0,1,29.2-33.2C123.3-93.9,136.6-95.6,150.2-92.1Zm237.3-.4a60.174,60.174,0,0,1,33.9,20.4c9.7,11.8,13.6,24,13.6,42.8V-17H333V-76.7l5.8-4.3C353.7-92.1,370.4-96.1,387.5-92.5Z"/>
    <path id="Path_2" data-name="Path 2" d="M248.5-399.1c-5,2.3-6,3.5-16.9,19.3-10,14.4-7.3,12.7-29.6,18.3-12.9,3.2-17.1,5.9-20.6,13.2-2.2,4.3-2.5,6.2-2,9.8.8,6.2,2.1,8.4,13,21.4l9.5,11.4-.6,17.2c-.3,9.4-.3,18.4.1,19.8.9,3.7,6.4,9.7,10.3,11.3,5.5,2.3,9.6,1.6,27.3-4.7l17.1-6.1,17,6.1c17.7,6.3,21.7,7,27.2,4.7,3.9-1.6,9.4-7.6,10.3-11.3.4-1.4.4-10.4.1-19.9l-.6-17.3,9.5-11.3c11.7-13.9,12.8-15.8,12.8-22.9.1-4.5-.5-6.5-2.9-10.4-3.7-6-7.1-7.8-21.7-11.6-6.2-1.6-12.9-3.4-14.9-3.9-3.2-.9-4.8-2.7-13.2-14.8-5.2-7.5-10.3-14.4-11.3-15.3C262.6-401.2,255.3-402.3,248.5-399.1Zm18.9,30.7c6,8.5,11.8,16,13,16.4,1.1.5,9.1,2.8,17.6,5,16.8,4.4,19.4,5.8,16.8,8.7-.8,1-6.1,7.4-11.8,14.2l-10.3,12.5.7,19.4c.7,18.6.7,19.4-1.1,18.8-1-.4-9.6-3.5-19-6.8L256-286.3,238.3-280c-9.8,3.5-18.4,6.5-19.2,6.8-1.2.4-1.3-2.5-.7-19l.7-19.6-10.2-12.3c-5.6-6.8-10.9-13.2-11.7-14.2-2.6-2.9,0-4.2,16.8-8.6,8.5-2.3,16.5-4.5,17.6-5,1.2-.5,7-8,12.9-16.5,5.9-8.6,11.1-15.6,11.4-15.6C256.3-384,261.5-377,267.4-368.4Z"/>
  </g>
</svg>
