<svg xmlns="http://www.w3.org/2000/svg" width="512.2" height="426" viewBox="0 0 512.2 426">
  <g id="online-training" transform="translate(0.1 469)">
    <path id="Path_1" data-name="Path 1" d="M235-426.5V-384l-89.2.2-89.3.3-5.6,2.6a33.485,33.485,0,0,0-15.7,15.2l-2.7,5.2-.3,121.7L32-117H53l.2-119.5L53.5-356l3.3-3.2,3.2-3.3,87.5-.3L235-363v118h42v39c0,21.4.3,39,.8,39,.4,0,18.3-17.6,39.7-39l39-39H512V-469H235Zm256,69V-267H347.5l-24.2,24.2L299-218.5V-267H256V-448H491Z"/>
    <path id="Path_2" data-name="Path 2" d="M339-356v49.1l2.3-1.2c6.7-3.5,80.4-46.3,81.4-47.3,1-.9-8.3-6.7-40.3-25.1-22.9-13.2-42-24.2-42.5-24.3C339.4-405,339-383.6,339-356Zm37.2-3.2c2.7,1.5,4.8,2.9,4.8,3.3,0,.3-3.5,2.5-7.7,4.9-4.3,2.4-8.8,5-10,5.8l-2.3,1.4V-368l5.3,3C369.1-363.3,373.6-360.7,376.2-359.2Z"/>
    <path id="Path_3" data-name="Path 3" d="M147-298c-27.8,5-45.5,32.4-38.5,59.5,5.6,21.2,24.3,35.5,46.6,35.5a47.216,47.216,0,0,0,42.8-27.4c13.4-27.9-3.1-60.7-33.7-67.2C156.9-299.1,153.8-299.2,147-298Zm19.1,23.4a30.446,30.446,0,0,1,13,13.1c2.3,4.9,2.5,16.1.5,20.9-2.2,5.2-8.6,11.7-14.1,14.2-17,8-37.5-5.3-37.5-24.1,0-10.8,7.4-21.3,17.7-25.1C150.6-277.4,161.4-276.9,166.1-274.6Z"/>
    <path id="Path_4" data-name="Path 4" d="M459-170.5V-117h21V-224H459Z"/>
    <path id="Path_5" data-name="Path 5" d="M105.3-190.6A53.9,53.9,0,0,0,80-176.1c-12,12.2-16,23.7-16,45.8V-117H84.7l.5-14.3c.4-12.6.7-14.8,3-19.7,3.6-7.9,8-12.5,15.6-16.2l6.7-3.3,40-.3c40.6-.3,49.5.2,55.8,3.4,4.9,2.6,11.7,9.5,14.5,14.9,2.4,4.6,2.7,6.3,3.2,20l.5,15h21l-.1-15c-.1-12.6-.4-16.1-2.3-21.5-5.7-17.1-16.4-28.5-32.7-34.8l-6.9-2.7-46.5-.2C121.7-191.8,109.2-191.6,105.3-190.6Z"/>
    <path id="Path_6" data-name="Path 6" d="M.2-86.8c.3,19.9.4,20.4,3.1,26A32.966,32.966,0,0,0,20.6-45c5.4,2,6.7,2,235.4,2s230,0,235.4-2a32.966,32.966,0,0,0,17.3-15.8c2.7-5.6,2.8-6.1,3.1-26l.3-20.2H-.1Zm490.6,9.3c-.3,6.6-.7,7.8-3.1,10.2L485-64.5l-227.8.2C33.1-64,29.5-64,26.3-65.9,22.7-68.2,21-72.7,21-80.3V-85H491.2Z"/>
  </g>
</svg>
